<svg width="67" height="67" xmlns="http://www.w3.org/2000/svg" xmlns:xlink="http://www.w3.org/1999/xlink" xml:space="preserve" overflow="hidden"><g transform="translate(-1197 -9)"><g><g><g><g><path d="M1244.96 67.2 1246.81 37.9125 1248.74 63.4187 1244.96 67.2ZM1240.69 69.125 1213.19 69.125 1215.6 30.625 1218.62 30.625 1218.62 36.125C1218.62 36.8812 1219.24 37.5 1220 37.5 1220.76 37.5 1221.38 36.8812 1221.38 36.125L1221.38 30.625 1235.12 30.625 1235.12 36.125C1235.12 36.8812 1235.74 37.5 1236.5 37.5 1237.26 37.5 1237.88 36.8812 1237.88 36.125L1237.88 30.625 1243.1 30.625 1240.69 69.125ZM1221.38 23.75C1221.38 20.5875 1223.51 17.975 1226.39 17.15 1225.36 18.6625 1224.81 20.45 1224.81 22.375L1224.81 26.5 1221.38 26.5 1221.38 23.75ZM1230.04 17.0812C1232.99 17.8375 1235.12 20.5187 1235.12 23.75L1235.12 26.5 1227.56 26.5 1227.56 22.375C1227.56 20.2437 1228.53 18.3875 1230.04 17.0812ZM1234.44 15.5C1238.22 15.5 1241.31 18.5938 1241.31 22.375L1241.31 26.5 1237.88 26.5 1237.88 23.75C1237.88 20.3125 1236.09 17.2875 1233.34 15.5688 1233.68 15.5688 1234.09 15.5 1234.44 15.5ZM1250.25 29.1125C1250.18 27.6688 1248.94 26.5 1247.5 26.5L1244.54 26.5C1245.92 26.5 1247.09 27.5312 1247.29 28.8375 1247.09 27.5312 1245.99 26.5 1244.54 26.5L1244.06 26.5 1244.06 22.375C1244.06 17.0812 1239.73 12.75 1234.44 12.75 1232.58 12.75 1230.86 13.3 1229.42 14.1938 1229.01 14.125 1228.66 14.125 1228.25 14.125 1222.96 14.125 1218.62 18.4562 1218.62 23.75L1218.62 26.5 1214.36 26.5C1212.92 26.5 1211.68 27.6 1211.61 29.1125L1209.07 70.3625C1209 71.9437 1210.24 73.25 1211.82 73.25L1242.07 73.25 1243.65 73.25C1244.41 73.25 1245.16 72.9062 1245.64 72.3562L1252.18 65.8938C1252.72 65.3438 1253.07 64.5188 1253 63.7625L1250.25 29.1125Z" stroke="#005A58" stroke-width="0.687349" stroke-linecap="butt" stroke-linejoin="miter" stroke-miterlimit="4" stroke-opacity="1" fill="#005A58" fill-rule="nonzero" fill-opacity="1"/></g></g></g></g></g></svg>